#usda 1.0
(
    defaultPrim = "HumanVisual"
    metersPerUnit = 1
    upAxis = "Z"
)

def Xform "HumanVisual"
{
    def Xform "OfficialCharacter" (
        prepend references = @https://omniverse-content-production.s3-us-west-2.amazonaws.com/Assets/Isaac/5.1/Isaac/People/Characters/male_adult_police_04/male_adult_police_04.usd@
    )
    {
        over "male_adult_police_04"
        {
            over "ManRoot"
            {
                over "male_adult_police_04"
                {
                    over "male_adult_police_04"
                    {
                        over "male_adult_police_04" (
                            prepend apiSchemas = ["SkelBindingAPI"]
                        )
                        {
                            rel skel:animationSource = </HumanVisual/OfficialAnimations/Active>
                        }
                    }
                }
            }
        }
    }

    def "OfficialAnimations"
    {
        def SkelAnimation "Active"
        {
            uniform token[] joints = ["RL_BoneRoot", "RL_BoneRoot/Hip", "RL_BoneRoot/Hip/Pelvis", "RL_BoneRoot/Hip/Pelvis/L_Thigh", "RL_BoneRoot/Hip/Pelvis/L_Thigh/L_Calf", "RL_BoneRoot/Hip/Pelvis/L_Thigh/L_Calf/L_Foot", "RL_BoneRoot/Hip/Pelvis/L_Thigh/L_Calf/L_Foot/L_ToeBaseShareBone", "RL_BoneRoot/Hip/Pelvis/L_Thigh/L_Calf/L_Foot/L_ToeBase", "RL_BoneRoot/Hip/Pelvis/L_Thigh/L_Calf/L_Foot/L_ToeBase/L_PinkyToe1", "RL_BoneRoot/Hip/Pelvis/L_Thigh/L_Calf/L_Foot/L_ToeBase/L_RingToe1", "RL_BoneRoot/Hip/Pelvis/L_Thigh/L_Calf/L_Foot/L_ToeBase/L_MidToe1", "RL_BoneRoot/Hip/Pelvis/L_Thigh/L_Calf/L_Foot/L_ToeBase/L_IndexToe1", "RL_BoneRoot/Hip/Pelvis/L_Thigh/L_Calf/L_Foot/L_ToeBase/L_BigToe1", "RL_BoneRoot/Hip/Pelvis/L_Thigh/L_Calf/L_CalfTwist01", "RL_BoneRoot/Hip/Pelvis/L_Thigh/L_Calf/L_CalfTwist01/L_CalfTwist02", "RL_BoneRoot/Hip/Pelvis/L_Thigh/L_Calf/L_KneeShareBone", "RL_BoneRoot/Hip/Pelvis/L_Thigh/L_ThighTwist01", "RL_BoneRoot/Hip/Pelvis/L_Thigh/L_ThighTwist01/L_ThighTwist02", "RL_BoneRoot/Hip/Pelvis/R_Thigh", "RL_BoneRoot/Hip/Pelvis/R_Thigh/R_Calf", "RL_BoneRoot/Hip/Pelvis/R_Thigh/R_Calf/R_KneeShareBone", "RL_BoneRoot/Hip/Pelvis/R_Thigh/R_Calf/R_Foot", "RL_BoneRoot/Hip/Pelvis/R_Thigh/R_Calf/R_Foot/R_ToeBase", "RL_BoneRoot/Hip/Pelvis/R_Thigh/R_Calf/R_Foot/R_ToeBase/R_BigToe1", "RL_BoneRoot/Hip/Pelvis/R_Thigh/R_Calf/R_Foot/R_ToeBase/R_PinkyToe1", "RL_BoneRoot/Hip/Pelvis/R_Thigh/R_Calf/R_Foot/R_ToeBase/R_RingToe1", "RL_BoneRoot/Hip/Pelvis/R_Thigh/R_Calf/R_Foot/R_ToeBase/R_IndexToe1", "RL_BoneRoot/Hip/Pelvis/R_Thigh/R_Calf/R_Foot/R_ToeBase/R_MidToe1", "RL_BoneRoot/Hip/Pelvis/R_Thigh/R_Calf/R_Foot/R_ToeBaseShareBone", "RL_BoneRoot/Hip/Pelvis/R_Thigh/R_Calf/R_CalfTwist01", "RL_BoneRoot/Hip/Pelvis/R_Thigh/R_Calf/R_CalfTwist01/R_CalfTwist02", "RL_BoneRoot/Hip/Pelvis/R_Thigh/R_ThighTwist01", "RL_BoneRoot/Hip/Pelvis/R_Thigh/R_ThighTwist01/R_ThighTwist02", "RL_BoneRoot/Hip/Waist", "RL_BoneRoot/Hip/Waist/Spine01", "RL_BoneRoot/Hip/Waist/Spine01/Spine02", "RL_BoneRoot/Hip/Waist/Spine01/Spine02/NeckTwist01", "RL_BoneRoot/Hip/Waist/Spine01/Spine02/NeckTwist01/NeckTwist02", "RL_BoneRoot/Hip/Waist/Spine01/Spine02/NeckTwist01/NeckTwist02/Head", "RL_BoneRoot/Hip/Waist/Spine01/Spine02/NeckTwist01/NeckTwist02/Head/FacialBone", "RL_BoneRoot/Hip/Waist/Spine01/Spine02/NeckTwist01/NeckTwist02/Head/FacialBone/JawRoot", "RL_BoneRoot/Hip/Waist/Spine01/Spine02/NeckTwist01/NeckTwist02/Head/FacialBone/JawRoot/Tongue01", "RL_BoneRoot/Hip/Waist/Spine01/Spine02/NeckTwist01/NeckTwist02/Head/FacialBone/JawRoot/Tongue01/Tongue02", "RL_BoneRoot/Hip/Waist/Spine01/Spine02/NeckTwist01/NeckTwist02/Head/FacialBone/JawRoot/Tongue01/Tongue02/Tongue03", "RL_BoneRoot/Hip/Waist/Spine01/Spine02/NeckTwist01/NeckTwist02/Head/FacialBone/JawRoot/Teeth02", "RL_BoneRoot/Hip/Waist/Spine01/Spine02/NeckTwist01/NeckTwist02/Head/FacialBone/R_Eye", "RL_BoneRoot/Hip/Waist/Spine01/Spine02/NeckTwist01/NeckTwist02/Head/FacialBone/L_Eye", "RL_BoneRoot/Hip/Waist/Spine01/Spine02/NeckTwist01/NeckTwist02/Head/FacialBone/UpperJaw", "RL_BoneRoot/Hip/Waist/Spine01/Spine02/NeckTwist01/NeckTwist02/Head/FacialBone/UpperJaw/Teeth01", "RL_BoneRoot/Hip/Waist/Spine01/Spine02/L_Clavicle", "RL_BoneRoot/Hip/Waist/Spine01/Spine02/L_Clavicle/L_Upperarm", "RL_BoneRoot/Hip/Waist/Spine01/Spine02/L_Clavicle/L_Upperarm/L_Forearm", "RL_BoneRoot/Hip/Waist/Spine01/Spine02/L_Clavicle/L_Upperarm/L_Forearm/L_ForearmTwist01", "RL_BoneRoot/Hip/Waist/Spine01/Spine02/L_Clavicle/L_Upperarm/L_Forearm/L_ForearmTwist01/L_ForearmTwist02", "RL_BoneRoot/Hip/Waist/Spine01/Spine02/L_Clavicle/L_Upperarm/L_Forearm/L_ElbowShareBone", "RL_BoneRoot/Hip/Waist/Spine01/Spine02/L_Clavicle/L_Upperarm/L_Forearm/L_Hand", "RL_BoneRoot/Hip/Waist/Spine01/Spine02/L_Clavicle/L_Upperarm/L_Forearm/L_Hand/L_Pinky1", "RL_BoneRoot/Hip/Waist/Spine01/Spine02/L_Clavicle/L_Upperarm/L_Forearm/L_Hand/L_Pinky1/L_Pinky2", "RL_BoneRoot/Hip/Waist/Spine01/Spine02/L_Clavicle/L_Upperarm/L_Forearm/L_Hand/L_Pinky1/L_Pinky2/L_Pinky3", "RL_BoneRoot/Hip/Waist/Spine01/Spine02/L_Clavicle/L_Upperarm/L_Forearm/L_Hand/L_Ring1", "RL_BoneRoot/Hip/Waist/Spine01/Spine02/L_Clavicle/L_Upperarm/L_Forearm/L_Hand/L_Ring1/L_Ring2", "RL_BoneRoot/Hip/Waist/Spine01/Spine02/L_Clavicle/L_Upperarm/L_Forearm/L_Hand/L_Ring1/L_Ring2/L_Ring3", "RL_BoneRoot/Hip/Waist/Spine01/Spine02/L_Clavicle/L_Upperarm/L_Forearm/L_Hand/L_Mid1", "RL_BoneRoot/Hip/Waist/Spine01/Spine02/L_Clavicle/L_Upperarm/L_Forearm/L_Hand/L_Mid1/L_Mid2", "RL_BoneRoot/Hip/Waist/Spine01/Spine02/L_Clavicle/L_Upperarm/L_Forearm/L_Hand/L_Mid1/L_Mid2/L_Mid3", "RL_BoneRoot/Hip/Waist/Spine01/Spine02/L_Clavicle/L_Upperarm/L_Forearm/L_Hand/L_Index1", "RL_BoneRoot/Hip/Waist/Spine01/Spine02/L_Clavicle/L_Upperarm/L_Forearm/L_Hand/L_Index1/L_Index2", "RL_BoneRoot/Hip/Waist/Spine01/Spine02/L_Clavicle/L_Upperarm/L_Forearm/L_Hand/L_Index1/L_Index2/L_Index3", "RL_BoneRoot/Hip/Waist/Spine01/Spine02/L_Clavicle/L_Upperarm/L_Forearm/L_Hand/L_Thumb1", "RL_BoneRoot/Hip/Waist/Spine01/Spine02/L_Clavicle/L_Upperarm/L_Forearm/L_Hand/L_Thumb1/L_Thumb2", "RL_BoneRoot/Hip/Waist/Spine01/Spine02/L_Clavicle/L_Upperarm/L_Forearm/L_Hand/L_Thumb1/L_Thumb2/L_Thumb3", "RL_BoneRoot/Hip/Waist/Spine01/Spine02/L_Clavicle/L_Upperarm/L_UpperarmTwist01", "RL_BoneRoot/Hip/Waist/Spine01/Spine02/L_Clavicle/L_Upperarm/L_UpperarmTwist01/L_UpperarmTwist02", "RL_BoneRoot/Hip/Waist/Spine01/Spine02/L_RibsTwist", "RL_BoneRoot/Hip/Waist/Spine01/Spine02/L_RibsTwist/L_Breast", "RL_BoneRoot/Hip/Waist/Spine01/Spine02/R_RibsTwist", "RL_BoneRoot/Hip/Waist/Spine01/Spine02/R_RibsTwist/R_Breast", "RL_BoneRoot/Hip/Waist/Spine01/Spine02/R_Clavicle", "RL_BoneRoot/Hip/Waist/Spine01/Spine02/R_Clavicle/R_Upperarm", "RL_BoneRoot/Hip/Waist/Spine01/Spine02/R_Clavicle/R_Upperarm/R_Forearm", "RL_BoneRoot/Hip/Waist/Spine01/Spine02/R_Clavicle/R_Upperarm/R_Forearm/R_ElbowShareBone", "RL_BoneRoot/Hip/Waist/Spine01/Spine02/R_Clavicle/R_Upperarm/R_Forearm/R_ForearmTwist01", "RL_BoneRoot/Hip/Waist/Spine01/Spine02/R_Clavicle/R_Upperarm/R_Forearm/R_ForearmTwist01/R_ForearmTwist02", "RL_BoneRoot/Hip/Waist/Spine01/Spine02/R_Clavicle/R_Upperarm/R_Forearm/R_Hand", "RL_BoneRoot/Hip/Waist/Spine01/Spine02/R_Clavicle/R_Upperarm/R_Forearm/R_Hand/R_Ring1", "RL_BoneRoot/Hip/Waist/Spine01/Spine02/R_Clavicle/R_Upperarm/R_Forearm/R_Hand/R_Ring1/R_Ring2", "RL_BoneRoot/Hip/Waist/Spine01/Spine02/R_Clavicle/R_Upperarm/R_Forearm/R_Hand/R_Ring1/R_Ring2/R_Ring3", "RL_BoneRoot/Hip/Waist/Spine01/Spine02/R_Clavicle/R_Upperarm/R_Forearm/R_Hand/R_Mid1", "RL_BoneRoot/Hip/Waist/Spine01/Spine02/R_Clavicle/R_Upperarm/R_Forearm/R_Hand/R_Mid1/R_Mid2", "RL_BoneRoot/Hip/Waist/Spine01/Spine02/R_Clavicle/R_Upperarm/R_Forearm/R_Hand/R_Mid1/R_Mid2/R_Mid3", "RL_BoneRoot/Hip/Waist/Spine01/Spine02/R_Clavicle/R_Upperarm/R_Forearm/R_Hand/R_Thumb1", "RL_BoneRoot/Hip/Waist/Spine01/Spine02/R_Clavicle/R_Upperarm/R_Forearm/R_Hand/R_Thumb1/R_Thumb2", "RL_BoneRoot/Hip/Waist/Spine01/Spine02/R_Clavicle/R_Upperarm/R_Forearm/R_Hand/R_Thumb1/R_Thumb2/R_Thumb3", "RL_BoneRoot/Hip/Waist/Spine01/Spine02/R_Clavicle/R_Upperarm/R_Forearm/R_Hand/R_Index1", "RL_BoneRoot/Hip/Waist/Spine01/Spine02/R_Clavicle/R_Upperarm/R_Forearm/R_Hand/R_Index1/R_Index2", "RL_BoneRoot/Hip/Waist/Spine01/Spine02/R_Clavicle/R_Upperarm/R_Forearm/R_Hand/R_Index1/R_Index2/R_Index3", "RL_BoneRoot/Hip/Waist/Spine01/Spine02/R_Clavicle/R_Upperarm/R_Forearm/R_Hand/R_Pinky1", "RL_BoneRoot/Hip/Waist/Spine01/Spine02/R_Clavicle/R_Upperarm/R_Forearm/R_Hand/R_Pinky1/R_Pinky2", "RL_BoneRoot/Hip/Waist/Spine01/Spine02/R_Clavicle/R_Upperarm/R_Forearm/R_Hand/R_Pinky1/R_Pinky2/R_Pinky3", "RL_BoneRoot/Hip/Waist/Spine01/Spine02/R_Clavicle/R_Upperarm/R_UpperarmTwist01", "RL_BoneRoot/Hip/Waist/Spine01/Spine02/R_Clavicle/R_Upperarm/R_UpperarmTwist01/R_UpperarmTwist02"]
            quatf[] rotations = [(1, 0, 0, 0), (0.6745844, 0.73818153, 0.003300832, -0.0036089523), (0.9891273, 0.14706193, 0.0000050275103, -0.000055119843), (-0.0009859926, -0.033553757, -0.16868527, -0.98509824), (-0.9994734, 0.030777246, -0.010271074, -0.00043035165), (-0.74371284, -0.6591187, 0.09628896, -0.05641101), (0.9889026, 0.14393155, 0.02533686, -0.02670848), (-0.9889071, -0.14392875, -0.025151407, 0.026735172), (0.9857381, -0.16404806, 0.033572584, -0.016778383), (0.98122233, -0.18579808, 0.04895795, -0.016879842), (0.9940784, -0.10159129, 0.038451713, -0.0029690983), (0.9910125, -0.12686126, 0.04233512, -0.0028556648), (0.9985402, -0.05190444, -0.0011390408, -0.014901531), (1, 0, 0, 0), (1, 0, 0, 0), (0.99987066, 0.0000049315436, 0.01608314, 0.000006619883), (1, 0, 0, 0), (1, 0, 0, 0), (0.018856043, 0.002432934, 0.17313743, 0.9847142), (0.9993597, -0.026957307, 0.023416992, -0.0022718993), (0.99987066, 0.000005027267, -0.016083138, -0.000006620502), (-0.7404075, -0.6458643, -0.18086925, 0.044072527), (-0.9889077, -0.14396256, 0.025138274, -0.026543293), (0.99854606, -0.05177016, 0.0011257074, 0.014978034), (0.9858333, -0.16344109, -0.03358196, 0.017087799), (0.98125535, -0.18560623, -0.04900543, 0.016933165), (0.99101746, -0.12681136, -0.042364057, 0.0029255294), (0.9940805, -0.10155991, -0.038479883, 0.0029790183), (0.98890346, 0.1439637, -0.025323506, 0.02651634), (1, 0, 0, 0), (1, 0, 0, 0), (1, 0, 0, 0), (1, 0, 0, 0), (0.9812269, 0.1928486, -0.0013329594, 0.0011987541), (0.9471874, -0.32065335, -0.0026848372, 0.0032089332), (0.99944735, -0.032468904, -0.0069671054, 0.0015467593), (0.96892524, 0.24735352, 0.000078540696, -0.00028050342), (0.9974816, -0.06538275, -0.027449548, -0.0014354334), (0.99357533, -0.1008426, -0.04590605, 0.023055078), (0.49999997, 0.49999997, 0.5, 0.50000006), (0.7071213, -0.00005918676, -0.000042020456, 0.70709234), (0.9969026, -0.0006718027, 0.012327874, 0.077671155), (0.99752855, -0.0023903472, 0.0073209456, 0.069838926), (1, 0, 0, 0), (-0.000079987505, 1, -0.0000022529957, 0.000097145705), (-0.000002214713, 0.70710665, 0.0000020288423, 0.70710695), (-0.0000020487146, 0.70710677, 0.0000021948417, 0.7071068), (0.7071024, 0.000027521248, -0.000030682862, 0.7071111), (0.00001063918, 1, -0.000010206974, -0.00003397436), (0.6496368, -0.0010467778, 0.19607386, -0.7345244), (0.7752668, 0.07778375, 0.103734605, -0.618183), (0.9911505, 0.12460096, 0.04509718, -0.007850244), (1, 0, 0, 0), (1, 0, 0, 0), (0.99999976, -0.00044646196, 0.0004150005, -0.000324474), (0.9856181, -0.010183041, 0.0997047, 0.13605954), (0.82617974, 0.037980903, -0.11258751, -0.55073464), (0.8248107, -0.0341483, -0.116288476, -0.5522663), (0.8452672, -0.03810529, -0.08089978, -0.52680796), (0.89156234, 0.017854938, -0.057393897, -0.44889167), (0.97602403, -0.06617858, -0.026496902, 0.2056585), (0.18513428, -0.038668618, -0.017674629, -0.98179317), (0.9288196, 0.021578033, -0.046225064, -0.36700374), (0.6936252, -0.01921201, -0.07738653, -0.7159094), (0.98538846, 0.008793338, -0.028327215, -0.16771947), (0.94180346, -0.001232132, 0.019081375, -0.33562008), (0.9241058, 0.024916815, -0.033080023, -0.379886), (0.84779406, -0.000594005, -0.06926321, -0.5257828), (0.93348736, 0.24333325, -0.25999627, -0.042335868), (0.9582774, -0.22064844, 0.112692356, 0.14254539), (0.9995337, 0.029256634, 0.0012056809, 0.008657513), (0.99999917, 0.0000030111398, -0.001291867, 1.8207024e-7), (0.9999992, 0.000001272514, 0.0012448769, 1.1465235e-7), (-0.00001125987, -0.000003047179, 0.6253598, 0.78033656), (1, 0, 0, 0), (-0.000011274782, -0.0000029998048, 0.6253598, 0.78033656), (1, 0, 0, 0), (0.6605196, -0.014062169, -0.20593804, 0.72187644), (0.7740128, 0.1258312, -0.02538354, 0.62002134), (0.99299806, 0.0044855676, -0.112149104, 0.036843393), (0.99999976, -0.0004465476, -0.0004149214, 0.00032445733), (1, 0, 0, 0), (1, 0, 0, 0), (0.9860963, -0.07642234, -0.120338656, -0.085395165), (0.8810679, 0.1198297, 0.109659806, 0.444224), (0.7746999, -0.009599606, 0.06951952, 0.6284225), (0.8744619, -0.015898678, 0.052068368, 0.4820296), (0.93125266, 0.021727491, 0.046036933, 0.36080062), (0.8960882, -0.008820812, 0.045907926, 0.44140765), (0.8589635, -0.0045867264, 0.0728734, 0.5068039), (0.9407502, 0.33806884, 0.020943768, 0.016118472), (0.98124975, -0.14829792, -0.07289602, -0.09921193), (0.9995344, 0.029233502, -0.0012088993, -0.008652622), (0.96014476, -0.084321894, -0.029880477, 0.2648001), (0.7546564, 0.01893123, 0.05030274, 0.65391505), (0.87205005, 0.0011889338, 0.06489977, 0.48509312), (0.8275108, 0.20386773, 0.20299262, 0.48213887), (0.8509316, -0.031872768, 0.108728796, 0.51291096), (0.86951923, -0.038159817, 0.07405586, 0.48682234), (0.99999905, 0.000003269307, 0.0013810637, -1.6440165e-7), (0.9999991, 0.0000013314761, -0.0013372123, -1.3259863e-7)]
            half3[] scales = [(1, 1, 1), (1, 1, 1), (1, 1, 1), (1, 1, 1), (1, 1, 1), (1, 1, 1), (1, 1, 1), (1, 1, 1), (1, 1, 1), (1, 1, 1), (1, 1, 1), (1, 1, 1), (1, 1, 1), (1, 1, 1), (1, 1, 1), (1, 1, 1), (1, 1, 1), (1, 1, 1), (1, 1, 1), (1, 1, 1), (1, 1, 1), (1, 1, 1), (1, 1, 1), (1, 1, 1), (1, 1, 1), (1, 1, 1), (1, 1, 1), (1, 1, 1), (1, 1, 1), (1, 1, 1), (1, 1, 1), (1, 1, 1), (1, 1, 1), (1, 1, 1), (1, 1, 1), (1, 1, 1), (1, 1, 1), (1, 1, 1), (1, 1, 1), (1, 1, 1), (1, 1, 1), (1, 1, 1), (1, 1, 1), (1, 1, 1), (1, 1, 1), (1, 1, 1), (1, 1, 1), (1, 1, 1), (1, 1, 1), (1, 1, 1), (1, 1, 1), (1, 1, 1), (1, 1, 1), (1, 1, 1), (1, 1, 1), (1, 1, 1), (1, 1, 1), (1, 1, 1), (1, 1, 1), (1, 1, 1), (1, 1, 1), (1, 1, 1), (1, 1, 1), (1, 1, 1), (1, 1, 1), (1, 1, 1), (1, 1, 1), (1, 1, 1), (1, 1, 1), (1, 1, 1), (1, 1, 1), (1, 1, 1), (1, 1, 1), (1, 1, 1), (1, 1, 1), (1, 1, 1), (1, 1, 1), (1, 1, 1), (1, 1, 1), (1, 1, 1), (1, 1, 1), (1, 1, 1), (1, 1, 1), (1, 1, 1), (1, 1, 1), (1, 1, 1), (1, 1, 1), (1, 1, 1), (1, 1, 1), (1, 1, 1), (1, 1, 1), (1, 1, 1), (1, 1, 1), (1, 1, 1), (1, 1, 1), (1, 1, 1), (1, 1, 1), (1, 1, 1), (1, 1, 1), (1, 1, 1), (1, 1, 1)]
            float3[] translations = [(0, 0, 0), (2.9958414e-18, -0.013541896, 0.9259004), (-0, 0, 0), (0.10899958, -0.020112759, 0.0005218242), (9.564683e-7, 0.41422358, -0.0000026524067), (-1.2200326e-7, 0.4301481, -0.0000038146973), (0.013280745, 0.15031064, -0.00038378715), (0.01328063, 0.1503113, -0.00038391352), (-0.031720873, 0.0026309108, -0.0060145045), (-0.016158547, 0.014293127, -0.0014365697), (1.9073486e-8, 0.022148227, 2.8610229e-8), (0.018292217, 0.025575848, 0.0029304074), (0.04345795, 0.024342213, -0.00023489118), (-1.4305114e-8, 1.9073487e-7, 3.0994414e-8), (-0.0000039386755, 0.2150712, 0.0000031733516), (-1.4305114e-8, 1.9073487e-7, 3.0994414e-8), (1.9073486e-8, 7.6293946e-7, 2.6226044e-8), (0.000003633499, 0.20710991, -0.000009913445), (-0.108973935, -0.020135766, 0.0005117042), (-0.0000011855736, 0.41422048, -0.0000029802322), (9.536743e-9, 3.0517577e-7, 4.053116e-8), (2.6077032e-8, 0.4301565, -0.0000037252903), (-0.014716482, 0.1501483, -0.00042560324), (-0.043445166, 0.024338968, -0.0002238488), (0.031681072, 0.002633762, -0.006015882), (0.016138766, 0.014283332, -0.0014424168), (-0.01828185, 0.025570296, 0.0029276416), (-4.768371e-9, 0.022148311, 2.0265578e-8), (-0.014716639, 0.15014744, -0.00042554378), (9.536743e-9, 3.0517577e-7, 4.053116e-8), (0.000004000664, 0.21507524, 0.0000032615662), (0, 6.8664554e-7, 9.536743e-9), (-0.0000037002558, 0.20710814, -0.00000995159), (0.00000932996, 0.08102439, 0.02463788), (5.0931703e-11, 0.048383866, 2.4959206e-8), (-2.4447218e-9, 0.14441538, -2.2888094e-7), (-1.2805685e-8, 0.28297547, -7.292656e-7), (-5.0640665e-9, 0.03750872, -1.1389511e-7), (-7.8149606e-7, 0.04080312, 0.0000074003074), (-2.9802322e-10, 0, 6.437302e-8), (0.015158386, 0.027519772, 0.0006139295), (0.03014263, 0.008964691, 0.0000020296127), (0.010747356, -4.5776366e-7, 1.1026859e-8), (0.017319832, 0.0006401062, -0.00044091223), (0.030454328, 0.010227966, -0.00046558547), (0.07455658, 0.072482616, -0.03116239), (0.07358017, 0.07302081, 0.029256994), (0.029785614, 0.065558925, 0.00012187518), (0.00030210256, -0.00001953125, -2.5108456e-8), (0.059606895, 0.22789472, 0.00088632863), (0.0000011622906, 0.13641314, -0.0000022277236), (-5.8673322e-8, 0.26565054, -0.00001168251), (0.0000012207031, 3.8146972e-8, 3.8146972e-8), (-0.0000025939942, 0.12643653, -2.3841858e-8), (0.0000012207031, 3.8146972e-8, 3.8146972e-8), (0.000007396564, 0.2529552, -0.00009138882), (0.005444471, 0.09123033, -0.01825817), (-0.000007728115, 0.031126713, -0.000038027763), (-0.0000013243407, 0.01688208, -0.000008194242), (-0, 0, 0), (0, -0, 0), (-5.059119e-7, 0.025597364, -0.000012408942), (-0.005054459, 0.09127465, 0.018139854), (5.7742e-7, 0.04584503, -0.00004247576), (-6.342307e-7, 0.029396715, -0.000010051765), (-0.006459494, 0.08795274, 0.04112171), (0.00000847294, 0.041170243, -0.00007010251), (0.0000034179538, 0.02779348, -0.000016802922), (0.0032877552, 0.019702911, 0.026151115), (-0.000006959366, 0.05752524, -0.00003008917), (-1.5258789e-7, 0.028856736, -3.8146972e-8), (7.6293946e-7, 1.7166138e-7, 9.536743e-9), (-0.000010681153, 0.13216367, -0.000012278558), (0.11738733, 0.059591904, 0.10505661), (2.1934511e-7, 0.019999927, -3.8146976e-7), (-0.1174161, 0.059574354, 0.105047606), (-1.8119813e-7, 0.019999927, -7.629396e-8), (-0.059626684, 0.22788183, 0.00088919123), (-8.121133e-7, 0.13642423, -0.0000023320317), (1.4991383e-7, 0.26566386, -0.000011444092), (-0.0000010681152, 0, 2.8610229e-8), (-0.0000010681152, 0, 2.8610229e-8), (0.0000027465821, 0.12642983, -9.536743e-9), (-0.000007489696, 0.25294918, -0.00009253621), (-0.000004304573, 0.08965677, -0.000015027821), (0.0000029979274, 0.04434178, -0.000014044344), (2.933666e-7, 0.025563825, -0.0000035949051), (0.0050591957, 0.09132897, 0.018156208), (0.0000020423904, 0.04589218, -0.000033184886), (0.0000011995435, 0.029397644, -0.000008005649), (-0.006469429, 0.020230236, 0.025150348), (-0.000011496246, 0.057531532, -0.000027500093), (0, 0.028853381, -7.629396e-8), (0.0064763157, 0.08797879, 0.04111446), (-0.00000804523, 0.04112849, -0.000059314072), (0.0000057742, 0.027784608, -0.000013945624), (-0.0054442193, 0.0912369, -0.018254116), (0.000009180978, 0.0311201, -0.000031854957), (-1.7601997e-7, 0.016851816, -0.0000069998205), (-6.1035155e-7, 1.2397766e-7, 4.7683715e-9), (0.000010681152, 0.13216372, -0.000012302398)]
        }
    }
}

